<?plantuml 1.2026.2?><svg xmlns="http://www.w3.org/2000/svg" xmlns:xlink="http://www.w3.org/1999/xlink" contentStyleType="text/css" data-diagram-type="STATE" height="397px" preserveAspectRatio="none" style="width:314px;height:397px;background:#FFFFFF;" version="1.1" viewBox="0 0 314 397" width="314px" zoomAndPan="magnify"><title>Session &#8212; Relay</title><defs/><g><g class="title" data-source-line="8"><text fill="#000000" font-family="Verdana" font-size="22" font-weight="bold" lengthAdjust="spacing" textLength="200.0303" x="49.6024" y="37.1182">Session &#8212; Relay</text></g><path d="M24.5,59.7373 L288.735,59.7373 A12.5,12.5 0 0 1 301.235,72.2373 L301.235,86.752 L12,86.752 L12,72.2373 A12.5,12.5 0 0 1 24.5,59.7373" fill="#F8F8F8"/><path d="M12,86.752 L301.235,86.752 L301.235,371.252 A12.5,12.5 0 0 1 288.735,383.752 L24.5,383.752 A12.5,12.5 0 0 1 12,371.252 L12,86.752" fill="#FFFFFF"/><rect fill="none" height="324.0146" rx="12.5" ry="12.5" style="stroke:#888888;stroke-width:1;" width="289.235" x="12" y="59.7373"/><line style="stroke:#888888;stroke-width:1;" x1="12" x2="301.235" y1="86.752" y2="86.752"/><text fill="#000000" font-family="Verdana" font-size="14" lengthAdjust="spacing" textLength="34.8496" x="139.1927" y="78.8125">relay</text><!--cluster R_Pairing--><g class="cluster" data-qualified-name="R.R_Pairing" data-source-line="11" id="ent0003"><path d="M83.08,98.752 L156.08,98.752 A12.5,12.5 0 0 1 168.58,111.252 L168.58,120.7666 L70.58,120.7666 L70.58,111.252 A12.5,12.5 0 0 1 83.08,98.752" fill="#F8F8F8"/><path d="M70.58,120.7666 L168.58,120.7666 L168.58,260.252 A12.5,12.5 0 0 1 156.08,272.752 L83.08,272.752 A12.5,12.5 0 0 1 70.58,260.252 L70.58,120.7666" fill="#FFFFFF"/><rect fill="none" height="174" rx="12.5" ry="12.5" style="stroke:#888888;stroke-width:1;" width="98" x="70.58" y="98.752"/><line style="stroke:#888888;stroke-width:1;" x1="70.58" x2="168.58" y1="120.7666" y2="120.7666"/><text fill="#000000" font-family="Verdana" font-size="14" lengthAdjust="spacing" textLength="48.0908" x="95.5346" y="116.8271">Pairing</text></g><g class="start_entity" data-qualified-name="R.R_Pairing..start.R_Pairing" data-source-line="12" id="ent0002"><ellipse cx="119.58" cy="144.752" fill="#FFFFFF" rx="10" ry="10" style="stroke:#000000;stroke-width:1;"/></g><g class="entity" data-qualified-name="R.R_Pairing.R_Idle" id="ent0003"><rect fill="#F8F8F8" height="50" rx="12.5" ry="12.5" style="stroke:#888888;stroke-width:1;" width="65.4316" x="86.87" y="206.752"/><line style="stroke:#888888;stroke-width:1;" x1="86.87" x2="152.3016" y1="233.7666" y2="233.7666"/><text fill="#000000" font-family="Verdana" font-size="14" lengthAdjust="spacing" textLength="45.4316" x="96.87" y="225.8271">R_Idle</text></g><g class="entity" data-qualified-name="R.R_BackendRegistered" id="ent0004"><rect fill="#F8F8F8" height="50" rx="12.5" ry="12.5" style="stroke:#888888;stroke-width:1;" width="172.9678" x="33.1" y="323.752"/><line style="stroke:#888888;stroke-width:1;" x1="33.1" x2="206.0678" y1="350.7666" y2="350.7666"/><text fill="#000000" font-family="Verdana" font-size="14" lengthAdjust="spacing" textLength="152.9678" x="43.1" y="342.8271">R_BackendRegistered</text></g><g class="entity" data-qualified-name="R.R_Bridged" id="ent0005"><rect fill="#F8F8F8" height="50" rx="12.5" ry="12.5" style="stroke:#888888;stroke-width:1;" width="92.5566" x="184.31" y="119.752"/><line style="stroke:#888888;stroke-width:1;" x1="184.31" x2="276.8666" y1="146.7666" y2="146.7666"/><text fill="#000000" font-family="Verdana" font-size="14" lengthAdjust="spacing" textLength="72.5566" x="194.31" y="138.8271">R_Bridged</text></g><!--link *start*R_Pairing to R_Idle--><g class="link" data-entity-1="ent0002" data-entity-2="ent0003" data-link-type="dependency" data-source-line="12" id="lnk4"><path d="M119.58,155.172 C119.58,167.452 119.58,183.362 119.58,200.442" fill="none" id="*start*R_Pairing-to-R_Idle" style="stroke:#000000;stroke-width:1;"/><polygon fill="#000000" points="119.58,206.442,123.58,197.442,119.58,201.442,115.58,197.442,119.58,206.442" style="stroke:#000000;stroke-width:1;"/></g><!--link R_Idle to R_BackendRegistered--><g class="link" data-entity-1="ent0003" data-entity-2="ent0004" data-link-type="dependency" data-source-line="15" id="lnk5"><path d="M152.24,257.022 C161.58,265.862 170.59,276.682 175.58,288.752 C180.99,301.802 178.145,309.7003 167.165,319.3103" fill="none" id="R_Idle-to-R_BackendRegistered" style="stroke:#000000;stroke-width:1;"/><polygon fill="#000000" points="162.65,323.262,172.0568,320.3445,166.4125,319.9689,166.788,314.3246,162.65,323.262" style="stroke:#000000;stroke-width:1;"/><text fill="#000000" font-family="Verdana" font-size="13" lengthAdjust="spacing" textLength="112.855" x="178.38" y="302.8218">backend_register</text></g><!--link R_BackendRegistered to R_Idle--><g class="link" data-entity-1="ent0004" data-entity-2="ent0003" data-link-type="dependency" data-source-line="16" id="lnk6"><path d="M55.02,323.372 C48.52,318.472 42.78,312.652 38.58,305.752 C23,280.112 52.2897,260.7068 81.0297,247.7568" fill="none" id="R_BackendRegistered-to-R_Idle" style="stroke:#000000;stroke-width:1;"/><polygon fill="#000000" points="86.5,245.292,76.6513,245.3424,81.9414,247.346,79.9378,252.6361,86.5,245.292" style="stroke:#000000;stroke-width:1;"/><text fill="#000000" font-family="Verdana" font-size="13" lengthAdjust="spacing" textLength="131.9043" x="39.58" y="302.8218">backend_disconnect</text></g><?plantuml-src RP31IWCn48RlUOgn7WHXxqjXFTYJDrcF8YLknktGD2ap8o9Iw4Fq2NqI9zkWYqekcU__vyzaBdI3EuHzz9ISR2djFViTFFjXEt9-JM6LOsPusv3YJ1VrYl3X06v_EIzVsdAAaZaWLzgshJiufwGHuG55A2VuF9wWn-ZVdJi7BhXK2_02_PHUyRqdfZIUXNMj9WF0u_KJDCsDyRiGqP0z0xMgGfaHK-Xn955a3B2SVcXipHLEFN-DFycpda0ov9HmqEyH_-cTQqnXD6AZNK7NTR3YBDBuGMqtbCnkLzk85D6vBm00?></g></svg>